# xmcd
#
# Track frame offsets:
#	150
#	20651
#	38649
#	55759
#	72699
#	90283
#	108949
#	123844
#	142256
#	160182
#	177623
#	193716
#	210720
#	225732
#	242571
#	259572
#
# Disc length: 3661 seconds
#
# Revision: 1
# Processed by: cddbd v1.5.1PL2 Copyright (c) Steve Scherf et al.
# Submitted via: EasyCDDAExtractor 9.0.0.1
#
DISCID=df0e4b10
DTITLE=Carrie Underwood - Some Hearts
DYEAR=2005
DGENRE=Country
TTITLE0=Wasted
TTITLE1=Don't Forget To Remember
TTITLE2=Some Hearts
TTITLE3=Jesus, Take The Wheel
TTITLE4=The Night Before (Life Goes On)
TTITLE5=Lessons Learned
TTITLE6=Before He Cheats
TTITLE7=Starts With Goodbye
TTITLE8=I Just Can't Live A Lie
TTITLE9=We're Young And Beautiful
TTITLE10=That's Where It Is
TTITLE11=Whenever You Remember
TTITLE12=I Ain't In Checotah Anymore
TTITLE13=Inside Your Heaven
TTITLE14=Inside Your Heaven
TTITLE15=Independence Day
EXTD=
EXTT0=
EXTT1=
EXTT2=
EXTT3=
EXTT4=
EXTT5=
EXTT6=
EXTT7=
EXTT8=
EXTT9=
EXTT10=
EXTT11=
EXTT12=
EXTT13=
EXTT14=
EXTT15=
PLAYORDER=
